#define file_dir_width 16
#define file_dir_height 13
static unsigned char file_dir_bits[] = {
   0xfc, 0x00, 0x02, 0x01, 0xff, 0xff, 0x01, 0x80, 0x01, 0x80, 0x01, 0x80,
   0x01, 0x80, 0x01, 0x80, 0x01, 0x80, 0x01, 0x80, 0x01, 0x80, 0x01, 0x80,
   0xff, 0xff};
