#define file_width 12
#define file_height 14
static unsigned char file_bits[] = {
   0xff, 0x00, 0x81, 0x01, 0x81, 0x02, 0x81, 0x04, 0x81, 0x08, 0x81, 0x0f,
   0x01, 0x08, 0x01, 0x08, 0x01, 0x08, 0x01, 0x08, 0x01, 0x08, 0x01, 0x08,
   0x01, 0x08, 0xff, 0x0f};
