#define closed_width 16
#define closed_height 16
static char closed_bits[] = {
 0x00,0x00,0xe0,0x00,0xe0,0x01,0xe0,0x03,0x60,0x07,0x60,0x0e,0x60,0x1c,0x60,
 0x38,0x60,0x1c,0x60,0x0e,0x60,0x07,0xe0,0x03,0xe0,0x01,0xe0,0x00,0x00,0x00,
 0x00,0x00};
