#define open_width 16
#define open_height 16
static char open_bits[] = {
 0x00,0x00,0x00,0x00,0x00,0x00,0x00,0x00,0x00,0x00,0xfc,0x7f,0xfc,0x7f,0x1c,
 0x70,0x38,0x38,0x70,0x1c,0xe0,0x0e,0xc0,0x07,0x80,0x03,0x00,0x01,0x00,0x00,
 0x00,0x00};
